<?xml version="1.0" encoding="UTF-8"?>
<svg version="1.1" xmlns="http://www.w3.org/2000/svg" width="500" height="500">
<path d="M0 0 C0.71451153 -0.00226556 1.42902307 -0.00453111 2.16518646 -0.00686532 C4.55952734 -0.01319575 6.95381147 -0.01237658 9.34815979 -0.0115509 C11.06475396 -0.01454296 12.78134745 -0.0179456 14.49794006 -0.02172852 C19.16111693 -0.03056724 23.82427546 -0.03290656 28.4874599 -0.0335443 C32.37921533 -0.03449361 36.27096648 -0.0381721 40.16272026 -0.0417164 C49.34318799 -0.04986022 58.5236459 -0.05230067 67.70411682 -0.05158997 C77.17784952 -0.05098895 86.65152531 -0.0615457 96.1252436 -0.07733363 C104.25697264 -0.09040279 112.38868306 -0.09577414 120.52042252 -0.09513456 C125.37806038 -0.09487942 130.23564766 -0.09773953 135.09327507 -0.10831261 C139.66099301 -0.11798325 144.22861191 -0.11807987 148.79633331 -0.11079597 C150.47291012 -0.1097489 152.14949307 -0.11212031 153.82605934 -0.11815643 C156.11446248 -0.12586189 158.40252234 -0.12124129 160.69091797 -0.11352539 C161.97162391 -0.11407016 163.25232985 -0.11461493 164.57184505 -0.1151762 C169.33871431 0.2403478 171.94839007 1.06642306 175.15895081 4.63371277 C178.02833046 8.73282656 178.03955291 11.03013339 178.05612183 16.05345154 C178.05979851 16.77371576 178.0634752 17.49397998 178.06726331 18.23607039 C178.07832133 20.66191924 178.08214756 23.08772528 178.08595276 25.51359558 C178.09221583 27.24797706 178.09886249 28.98235719 178.10586548 30.71673584 C178.12329015 35.43793941 178.13383131 40.15913284 178.14207101 44.8803606 C178.14721824 47.82892598 178.15329411 50.77748819 178.15958214 53.72605133 C178.17863863 62.94819641 178.19286858 72.17033345 178.20119411 81.39249444 C178.21096807 92.04380364 178.23728985 102.69490511 178.277695 113.3461411 C178.30784015 121.57465901 178.32266148 129.80311733 178.32597512 138.03168941 C178.32832751 142.94814813 178.3373124 147.86438504 178.36243629 152.78078461 C178.38569392 157.40683069 178.38995958 162.03250858 178.37967491 166.65859795 C178.37917887 168.35572724 178.38551942 170.05287452 178.39923096 171.7499485 C178.41691868 174.06908712 178.40986024 176.3868999 178.396698 178.70603943 C178.39908635 180.0031699 178.4014747 181.30030037 178.40393543 182.63673782 C177.82209252 186.74735054 176.43285815 188.88302138 173.90895081 192.13371277 C173.37012268 192.83238464 172.83129456 193.53105652 172.27613831 194.25090027 C171.78371643 194.83097839 171.29129456 195.41105652 170.78395081 196.00871277 C170.28637268 196.60425964 169.78879456 197.19980652 169.27613831 197.81340027 C167.90895081 199.13371277 167.90895081 199.13371277 165.90895081 199.13371277 C165.68207581 199.69058777 165.45520081 200.24746277 165.22145081 200.82121277 C163.53345044 203.79530864 161.44218564 205.85380142 158.90895081 208.13371277 C158.24895081 208.13371277 157.58895081 208.13371277 156.90895081 208.13371277 C156.66145081 208.75246277 156.41395081 209.37121277 156.15895081 210.00871277 C154.67154712 212.53729904 153.47217072 212.85210281 150.90895081 214.13371277 C150.22524631 215.45839023 149.55930895 216.79234909 148.90895081 218.13371277 C145.64636071 221.24805974 143.29128655 221.5017851 138.85523987 221.47428894 C137.63427612 221.47406235 136.41331238 221.47383575 135.15534973 221.47360229 C133.84169434 221.45811844 132.52803894 221.44263458 131.17457581 221.42668152 C129.81266243 221.4210834 128.450743 221.41681432 127.08882141 221.41381836 C123.51138002 221.40238638 119.93430639 221.37293394 116.35700989 221.33970642 C112.70380121 221.30896968 109.05053288 221.29530536 105.39723206 221.28019714 C98.23430432 221.24806218 91.07167918 221.19688635 83.90895081 221.13371277 C83.13700517 208.33363445 82.78982555 195.60344652 82.89491653 182.78119659 C82.91746002 179.9041729 82.93119182 177.0272196 82.94261169 174.15013123 C82.975753 165.98782468 83.01820103 157.82563836 83.08033752 149.66349792 C83.11805453 144.62838792 83.14101771 139.5933891 83.15464401 134.55815887 C83.16265676 132.65563557 83.17620617 130.75312669 83.19557571 128.85068512 C83.22216835 126.19846782 83.22995642 123.54678941 83.23365784 120.89445496 C83.25219315 119.73640602 83.25219315 119.73640602 83.27110291 118.55496216 C83.24770082 112.16940462 82.1428857 106.42643542 77.53395081 101.69621277 C73.52841188 99.31196341 69.71791459 99.00691038 65.12060547 99.0269165 C63.7180098 99.02918999 63.7180098 99.02918999 62.28707886 99.0315094 C61.27340744 99.03824677 60.25973602 99.04498413 59.21534729 99.05192566 C57.59992035 99.0565255 57.59992035 99.0565255 55.95185852 99.06121826 C53.61650282 99.06836495 51.28115313 99.07775058 48.94581413 99.08911324 C45.25196815 99.10650118 41.55816539 99.11680157 37.86428833 99.12503052 C27.36293956 99.14949038 16.86164923 99.18513174 6.36036682 99.22966003 C-0.06442824 99.25640744 -6.48918979 99.27347264 -12.91403008 99.28452873 C-15.36410196 99.29074575 -17.8141672 99.30076 -20.26420784 99.31460762 C-23.68512888 99.33377455 -27.1058728 99.34071288 -30.52684021 99.34489441 C-31.54253586 99.35365601 -32.55823151 99.3624176 -33.60470581 99.3714447 C-35.00307175 99.36948845 -35.00307175 99.36948845 -36.4296875 99.36749268 C-37.64224386 99.37220628 -37.64224386 99.37220628 -38.8792963 99.37701511 C-41.33482821 99.10689603 -42.9642699 98.36022852 -45.09104919 97.13371277 C-45.14219154 90.10859829 -45.17696654 83.08353266 -45.20091248 76.05827332 C-45.21090616 73.67348944 -45.22450563 71.28871761 -45.2419281 68.90397644 C-45.26647039 65.45578518 -45.27759895 62.00775737 -45.28636169 58.55949402 C-45.30184555 56.98679497 -45.30184555 56.98679497 -45.31764221 55.38232422 C-45.32053563 35.84392841 -45.32053563 35.84392841 -41.13868713 30.76037598 C-39.09104919 29.13371277 -39.09104919 29.13371277 -37.09104919 29.13371277 C-36.86417419 28.57683777 -36.63729919 28.01996277 -36.40354919 27.44621277 C-34.71554883 24.47211689 -32.62428403 22.41362412 -30.09104919 20.13371277 C-29.43104919 20.13371277 -28.77104919 20.13371277 -28.09104919 20.13371277 C-27.87448669 19.59230652 -27.65792419 19.05090027 -27.43479919 18.49308777 C-25.62604922 15.31725933 -23.1738112 12.92643195 -20.59104919 10.38371277 C-20.09218201 9.87711121 -19.59331482 9.37050964 -19.07933044 8.84855652 C-15.34446058 5.13371277 -15.34446058 5.13371277 -13.09104919 5.13371277 C-12.84354919 4.49433777 -12.59604919 3.85496277 -12.34104919 3.19621277 C-11.09104919 1.13371277 -11.09104919 1.13371277 -9.45611477 0.51316357 C-6.28226626 0.00395174 -3.21545686 0.00420877 0 0 Z " fill="#D8D8D8" transform="translate(222.09104919433594,91.86628723144531)"/>
<path d="M0 0 C0.65240382 -0.00453111 1.30480765 -0.00906223 1.97698128 -0.01373065 C4.16719041 -0.02640993 6.35715199 -0.02475204 8.5473938 -0.02310181 C10.11606161 -0.02908488 11.68472648 -0.03588991 13.25338745 -0.04345703 C17.51788803 -0.06114711 21.78230838 -0.06581368 26.0468421 -0.0670886 C29.60552004 -0.06898642 33.16417923 -0.07634262 36.72284997 -0.08343279 C45.11847578 -0.09972589 53.51405868 -0.10460092 61.90969849 -0.10317993 C70.57290145 -0.10197834 79.23585535 -0.12308148 87.89899528 -0.15466726 C95.33432847 -0.18081135 102.76958022 -0.19154801 110.20495903 -0.19026911 C114.64684875 -0.18975891 119.0885172 -0.19547386 123.53036118 -0.21662521 C127.70830477 -0.2359762 131.88581533 -0.23615383 136.06377411 -0.22159195 C137.59683743 -0.2194988 139.12992762 -0.22423487 140.66294479 -0.23631287 C142.75692635 -0.25174136 144.84941028 -0.24247559 146.94335938 -0.22705078 C148.11474897 -0.22814032 149.28613857 -0.22922985 150.49302483 -0.2303524 C154.31040846 0.38150547 155.96684481 1.45866596 158.59866333 4.26742554 C159.22951984 6.52031803 159.22951984 6.52031803 159.23789978 9.03062439 C159.25318726 9.98682678 159.26847473 10.94302917 159.28422546 11.9282074 C159.27559982 12.97157761 159.26697418 14.01494781 159.25808716 15.0899353 C159.26857086 16.19497406 159.27905457 17.30001282 159.28985596 18.4385376 C159.31876005 22.11224996 159.3122833 25.78502508 159.30569458 29.45883179 C159.31883053 32.037289 159.33414052 34.61573597 159.35151672 37.19416809 C159.38744532 43.32187457 159.40110559 49.44926613 159.40414113 55.57706541 C159.40874325 62.40942345 159.44156879 69.24154175 159.47700143 76.07379842 C159.54016777 88.37228652 159.5704301 100.67060671 159.58073616 112.96924782 C159.58758331 119.33730728 159.60865688 125.70484312 159.65773106 132.07272053 C159.68335787 135.40295439 159.70228679 138.73320751 159.72034264 142.06348991 C159.73020425 143.52657759 159.74346306 144.98964716 159.76047707 146.45266914 C159.78283032 148.39596562 159.79211383 150.33939975 159.80056763 152.2828064 C159.80984787 153.33189682 159.81912811 154.38098724 159.82868958 155.46186829 C159.52221264 159.19987037 158.68570328 162.12757956 156.0708313 164.86947632 C155.45868774 165.35400269 154.84654419 165.83852905 154.21585083 166.33773804 C150.57850668 169.37022785 147.18732853 172.58480266 143.85647583 175.94711304 C143.10826569 176.70039886 143.10826569 176.70039886 142.34494019 177.46890259 C140.80244435 179.02471121 139.26264606 180.58314215 137.72366333 182.14242554 C135.6666438 184.22602809 133.60632349 186.30628576 131.54397583 188.38461304 C130.64179321 189.29839722 129.7396106 190.2121814 128.81008911 191.15365601 C125.26195009 194.54510971 123.18323945 194.39553195 118.35554504 194.40786743 C117.7080792 194.41083855 117.06061335 194.41380968 116.39352733 194.41687083 C114.21409033 194.42557393 112.03470815 194.42706743 109.85525513 194.42855835 C108.29658897 194.43318541 106.73792395 194.43820992 105.17926025 194.44360352 C100.93744315 194.45674091 96.69564187 194.46317516 92.45380759 194.46761417 C89.80475701 194.47054294 87.15571077 194.47464738 84.50666237 194.47911835 C76.22157456 194.49279723 67.93649668 194.50246179 59.65139836 194.50632024 C50.08171042 194.51080115 40.5121653 194.5283489 30.9425208 194.55732083 C23.54967921 194.57892688 16.15687784 194.58902395 8.76400501 194.59036136 C4.34672582 194.59141022 -0.07041918 194.59733522 -4.48766518 194.61518097 C-8.64336674 194.63164293 -12.79883299 194.63382635 -16.95455551 194.62504196 C-18.47955518 194.62427056 -20.00456739 194.62862792 -21.52953529 194.63850021 C-23.61239356 194.6511929 -25.69441506 194.64535838 -27.77726746 194.63491821 C-28.94258153 194.63638477 -30.1078956 194.63785133 -31.30852222 194.63936234 C-34.75294435 194.22514177 -36.63667515 193.328903 -39.40133667 191.26742554 C-40.78358531 188.50292825 -40.54647818 186.25344716 -40.56869507 183.15838623 C-40.58018585 181.85459015 -40.59167664 180.55079407 -40.60351562 179.20748901 C-40.61114107 177.75399857 -40.61861267 176.30050732 -40.62594604 174.84701538 C-40.6371189 173.32277178 -40.64863215 171.79853064 -40.66046143 170.27429199 C-40.69705582 165.25901723 -40.72224633 160.24371715 -40.74508667 155.22836304 C-40.74903254 154.37508313 -40.7529784 153.52180322 -40.75704384 152.64266634 C-40.79346941 144.59447797 -40.82491376 136.54628086 -40.84615326 128.49803734 C-40.87371742 118.20514986 -40.92445585 107.91295232 -41.00662756 97.62035215 C-41.06244959 90.38288627 -41.09139384 83.14560738 -41.10062647 75.90793383 C-41.10688016 71.58584108 -41.12496605 67.26455683 -41.17201233 62.94269943 C-41.2157646 58.87289048 -41.22614175 54.80432966 -41.21138382 50.73432541 C-41.2117118 49.24440259 -41.22393636 47.75442519 -41.24923325 46.2647171 C-41.45237587 33.63003082 -41.45237587 33.63003082 -37.05380249 28.48950195 C-35.22147369 26.75171852 -35.22147369 26.75171852 -33.40133667 25.26742554 C-32.56904163 24.55672692 -32.56904163 24.55672692 -31.71993256 23.83167076 C-30.28923589 22.63296415 -28.84592138 21.44935849 -27.40133667 20.26742554 C-26.39559889 18.93841489 -25.39338259 17.60668753 -24.40133667 16.26742554 C-23.74133667 16.26742554 -23.08133667 16.26742554 -22.40133667 16.26742554 C-22.40133667 15.60742554 -22.40133667 14.94742554 -22.40133667 14.26742554 C-20.82711792 12.71664429 -20.82711792 12.71664429 -18.71383667 10.95492554 C-16.23152344 8.84978357 -13.8944845 6.76057336 -11.58883667 4.45492554 C-7.67189403 0.53798289 -5.41406189 0.01550119 0 0 Z M-15.94742584 39.16523361 C-20.50298195 48.8853685 -19.74368499 59.76270553 -19.32782149 70.24276328 C-19.20723444 73.80671542 -19.19774953 77.37113616 -19.17533875 80.93681335 C-19.11679052 87.65747533 -18.9616383 94.37210968 -18.76969844 101.09014207 C-18.55567837 108.7510044 -18.45246133 116.41218938 -18.35748518 124.07530725 C-18.16004834 139.80947842 -17.82692698 155.5376685 -17.40133667 171.26742554 C-0.25893604 171.71348016 16.88162718 172.04736367 34.02852345 172.2518568 C41.99244728 172.34938154 49.95274416 172.48202658 57.91433716 172.70077515 C64.86310662 172.89160304 71.80924888 173.01305702 78.76056594 173.05510694 C82.43487165 173.07965573 86.10167083 173.13623585 89.77353859 173.27629662 C107.29709918 174.17573469 107.29709918 174.17573469 122.71911621 166.98144531 C131.9832254 158.83557634 131.9832254 158.83557634 136.72450447 148.0563345 C136.72507001 146.66729711 136.72507001 146.66729711 136.72564697 145.25019836 C136.7284668 144.18871078 136.73128662 143.12722321 136.73419189 142.03356934 C136.73216766 140.86413788 136.73014343 139.69470642 136.72805786 138.48983765 C136.72981018 137.262202 136.7315625 136.03456635 136.73336792 134.76972961 C136.73702225 131.3979661 136.73615558 128.02626371 136.73298883 124.65450358 C136.73046234 121.1315609 136.73280353 117.60862088 136.734375 114.0856781 C136.73619561 108.16993743 136.73379298 102.25420924 136.72903442 96.33847046 C136.7235895 89.4901816 136.72535657 82.6419225 136.73086083 75.79363436 C136.73539206 69.92186221 136.73604254 64.05009904 136.73342216 58.17832571 C136.73185976 54.66778263 136.73166465 51.15725355 136.73495865 47.64671135 C136.73837139 43.73633533 136.73364748 39.82599293 136.72805786 35.9156189 C136.73109421 34.15843536 136.73109421 34.15843536 136.73419189 32.36575317 C136.73137207 31.30708542 136.72855225 30.24841766 136.72564697 29.15766907 C136.72526995 28.23202117 136.72489292 27.30637327 136.72450447 26.35267544 C136.8306611 24.27834746 136.8306611 24.27834746 135.59866333 23.26742554 C133.90905159 23.12983116 132.21379299 23.06114204 130.519104 23.01931763 C129.41769073 22.99048492 128.31627747 22.96165222 127.18148804 22.9319458 C125.9619342 22.90569122 124.74238037 22.87943665 123.48587036 22.85238647 C122.20926544 22.82172089 120.93266052 22.7910553 119.61737061 22.75946045 C107.77535898 22.48403242 95.93111381 22.32682683 84.08667183 22.20086288 C76.13173996 22.11428275 68.18069322 21.99237801 60.22805786 21.77914429 C53.28397948 21.59298047 46.34262349 21.47598346 39.39609039 21.4390738 C35.72524569 21.41736557 32.06175738 21.36405271 28.39322281 21.2279892 C9.95198157 20.57510428 -5.44794533 22.20797507 -15.94742584 39.16523361 Z " fill="#CFCFCF" transform="translate(139.40133666992188,197.73257446289063)"/>
<path d="M0 0 C0.5775 0.185625 1.155 0.37125 1.75 0.5625 C4.22488597 1.04372783 5.60985476 0.67787733 8 0 C7.08877273 1.10865985 6.17073341 2.21172219 5.25 3.3125 C4.48429687 4.23482422 4.48429687 4.23482422 3.703125 5.17578125 C0.94121114 8.13406972 -0.83680705 9.85322637 -4.96976662 10.37473011 C-6.13600248 10.37456237 -7.30223835 10.37439463 -8.5038147 10.3742218 C-9.15510609 10.37819621 -9.80639748 10.38217061 -10.47742498 10.38626546 C-12.65786144 10.39588333 -14.83764823 10.38407421 -17.01806641 10.37231445 C-18.58189638 10.37474255 -20.14572481 10.37846205 -21.70954895 10.38337708 C-25.95526158 10.39278574 -30.20074368 10.38336173 -34.44643831 10.37004495 C-38.88579122 10.35873608 -43.32513268 10.36283742 -47.76449585 10.36479187 C-55.21771008 10.36567484 -62.67083336 10.3545923 -70.12402344 10.33618164 C-78.74918189 10.31499845 -87.37420723 10.31150741 -95.99938643 10.3177436 C-104.28929573 10.32343115 -112.579158 10.31779981 -120.86906052 10.30657005 C-124.40093223 10.30191755 -127.93277525 10.301053 -131.4646492 10.3031559 C-135.61953143 10.30503469 -139.77427747 10.29696662 -143.92912865 10.2810955 C-145.45699055 10.27684073 -146.98486624 10.27601007 -148.51273155 10.27878571 C-150.59202306 10.28199099 -152.67090338 10.27296827 -154.75015259 10.26069641 C-155.9156344 10.25864354 -157.08111622 10.25659067 -158.28191566 10.25447559 C-161 10 -161 10 -163 8 C-109.87 8 -56.74 8 -2 8 C-2.33 6.68 -2.66 5.36 -3 4 C-2.34 4 -1.68 4 -1 4 C-0.67 2.68 -0.34 1.36 0 0 Z " fill="#727272" transform="translate(266,382)"/>
<path d="M0 0 C0.86625 0.2784375 0.86625 0.2784375 1.75 0.5625 C4.22488597 1.04372783 5.60985476 0.67787733 8 0 C7.06725891 1.12894876 6.12859878 2.25300876 5.1875 3.375 C4.66542969 4.00148438 4.14335937 4.62796875 3.60546875 5.2734375 C2 7 2 7 -1 9 C-1.66 7.35 -2.32 5.7 -3 4 C-2.34 4 -1.68 4 -1 4 C-0.67 2.68 -0.34 1.36 0 0 Z " fill="#B1B1B1" transform="translate(266,382)"/>
<path d="M0 0 C0.66 0.33 1.32 0.66 2 1 C2 4 2 4 0.375 6 C-2.26008682 8.21902048 -4.88789895 9.54327185 -8 11 C-8.99 11.66 -9.98 12.32 -11 13 C-9.46356148 9.31930113 -7.21849055 7.01224796 -4.375 4.25 C-3.55773437 3.45078125 -2.74046875 2.6515625 -1.8984375 1.828125 C-0.95871094 0.92320313 -0.95871094 0.92320313 0 0 Z " fill="#9C9D9D" transform="translate(205,99)"/>
<path d="M0 0 C0.99 0.33 1.98 0.66 3 1 C2.04578192 2.14926266 1.08647955 3.29430541 0.125 4.4375 C-0.40867187 5.07558594 -0.94234375 5.71367187 -1.4921875 6.37109375 C-3 8 -3 8 -5 9 C-5.33 7.68 -5.66 6.36 -6 5 C-5.360625 4.71125 -4.72125 4.4225 -4.0625 4.125 C-1.84793921 3.17176549 -1.84793921 3.17176549 -1 1 C-0.67 0.67 -0.34 0.34 0 0 Z " fill="#A1A2A2" transform="translate(280,372)"/>
<path d="M0 0 C-1.1427919 1.16964602 -2.28931715 2.33564556 -3.4375 3.5 C-4.07558594 4.1496875 -4.71367187 4.799375 -5.37109375 5.46875 C-7 7 -7 7 -8 7 C-8 5.02 -8 3.04 -8 1 C-2.25 -1.125 -2.25 -1.125 0 0 Z " fill="#9C9E9D" transform="translate(138,225)"/>
<path d="M0 0 C0.66 0.33 1.32 0.66 2 1 C-0.68058098 4.57410797 -3.42589203 7.31941902 -7 10 C-7.66 9.67 -8.32 9.34 -9 9 C-8.06725891 7.87105124 -7.12859878 6.74699124 -6.1875 5.625 C-5.66542969 4.99851563 -5.14335938 4.37203125 -4.60546875 3.7265625 C-3 2 -3 2 0 0 Z " fill="#929493" transform="translate(131,199)"/>
<path d="M0 0 C0.99 0.33 1.98 0.66 3 1 C1.02 3.31 -0.96 5.62 -3 8 C-3.33 6.68 -3.66 5.36 -4 4 C-3.34 4 -2.68 4 -2 4 C-1.34 2.68 -0.68 1.36 0 0 Z " fill="#9D9E9E" transform="translate(287,365)"/>
<path d="M0 0 C0 3.5934292 -0.58617491 4.41970421 -3 7 C-5.6875 8.25 -5.6875 8.25 -8 9 C-7.34 7.68 -6.68 6.36 -6 5 C-5.34 5 -4.68 5 -4 5 C-4 4.34 -4 3.68 -4 3 C-2 1.375 -2 1.375 0 0 Z " fill="#9F9F9F" transform="translate(121,209)"/>
<path d="M0 0 C0 0.99 0 1.98 0 3 C0.31421071 5.00309329 0.6451046 7.00371336 1 9 C0.01 8.67 -0.98 8.34 -2 8 C-2 7.01 -2 6.02 -2 5 C-2.66 5 -3.32 5 -4 5 C-4 4.34 -4 3.68 -4 3 C-2 1.375 -2 1.375 0 0 Z " fill="#E0E0E0" transform="translate(126,206)"/>
<path d="M0 0 C0.33 0.66 0.66 1.32 1 2 C-1.46153846 5.81538462 -1.46153846 5.81538462 -4.1875 6.75 C-4.785625 6.8325 -5.38375 6.915 -6 7 C-6 6.34 -6 5.68 -6 5 C-4.04072937 3.2856382 -2.04119788 1.61594832 0 0 Z " fill="#A2A3A3" transform="translate(108,222)"/>
</svg>
